<svg class="marks" width="261" height="255" version="1.1" xmlns="http://www.w3.org/2000/svg" xmlns:xlink="http://www.w3.org/1999/xlink"><g transform="translate(48,12)"><g class="mark-group"><g transform="translate(0,0)"><rect class="background" width="1" height="1" style="fill: none;"></rect><g class="mark-group root"><g transform="translate(0,0)"><rect class="background" width="200" height="200" style="fill: none;"></rect><g class="mark-group"><g transform="translate(0,200)"><rect class="background" width="0" height="0" style="pointer-events: none; fill: none;"></rect><g class="mark-rule" style="pointer-events: none;"><line transform="translate(0.5,-200)" x2="0" y2="200" style="fill: none; stroke: #000; stroke-opacity: 0.15; opacity: 1;"></line><line transform="translate(40.5,-200)" x2="0" y2="200" style="fill: none; stroke: #000; stroke-opacity: 0.15; opacity: 1;"></line><line transform="translate(80.5,-200)" x2="0" y2="200" style="fill: none; stroke: #000; stroke-opacity: 0.15; opacity: 1;"></line><line transform="translate(120.5,-200)" x2="0" y2="200" style="fill: none; stroke: #000; stroke-opacity: 0.15; opacity: 1;"></line><line transform="translate(160.5,-200)" x2="0" y2="200" style="fill: none; stroke: #000; stroke-opacity: 0.15; opacity: 1;"></line><line transform="translate(200.5,-200)" x2="0" y2="200" style="fill: none; stroke: #000; stroke-opacity: 0.15; opacity: 1;"></line></g><g class="mark-rule" style="pointer-events: none;"><line transform="translate(0.5,0)" x2="0" y2="6" style="fill: none; stroke: #000; stroke-width: 1; opacity: 1;"></line><line transform="translate(40.5,0)" x2="0" y2="6" style="fill: none; stroke: #000; stroke-width: 1; opacity: 1;"></line><line transform="translate(80.5,0)" x2="0" y2="6" style="fill: none; stroke: #000; stroke-width: 1; opacity: 1;"></line><line transform="translate(120.5,0)" x2="0" y2="6" style="fill: none; stroke: #000; stroke-width: 1; opacity: 1;"></line><line transform="translate(160.5,0)" x2="0" y2="6" style="fill: none; stroke: #000; stroke-width: 1; opacity: 1;"></line><line transform="translate(200.5,0)" x2="0" y2="6" style="fill: none; stroke: #000; stroke-width: 1; opacity: 1;"></line></g><g class="mark-rule" style="pointer-events: none;"></g><g class="mark-text"><text text-anchor="middle" transform="translate(0.5,19)" style="font: 11px sans-serif; fill: #000; opacity: 1;">0</text><text text-anchor="middle" transform="translate(40.5,19)" style="font: 11px sans-serif; fill: #000; opacity: 1;">2</text><text text-anchor="middle" transform="translate(80.5,19)" style="font: 11px sans-serif; fill: #000; opacity: 1;">4</text><text text-anchor="middle" transform="translate(120.5,19)" style="font: 11px sans-serif; fill: #000; opacity: 1;">6</text><text text-anchor="middle" transform="translate(160.5,19)" style="font: 11px sans-serif; fill: #000; opacity: 1;">8</text><text text-anchor="middle" transform="translate(200.5,19)" style="font: 11px sans-serif; fill: #000; opacity: 1;">10</text></g><g class="mark-path" style="pointer-events: none;"><path transform="translate(0.5,0.5)" d="M0,6V0H200V6" style="fill: none; stroke: #000; stroke-width: 1;"></path></g><g class="mark-text"><text text-anchor="middle" transform="translate(100,35)" style="font: bold 11px sans-serif; fill: #000;">x</text></g></g></g><g class="mark-group"><g transform="translate(0,0)"><rect class="background" width="0" height="0" style="pointer-events: none; fill: none;"></rect><g class="mark-rule" style="pointer-events: none;"><line transform="translate(0,200.5)" x2="200" y2="0" style="fill: none; stroke: #000; stroke-opacity: 0.15; opacity: 1;"></line><line transform="translate(0,186.5)" x2="200" y2="0" style="fill: none; stroke: #000; stroke-opacity: 0.15; opacity: 1;"></line><line transform="translate(0,171.5)" x2="200" y2="0" style="fill: none; stroke: #000; stroke-opacity: 0.15; opacity: 1;"></line><line transform="translate(0,157.5)" x2="200" y2="0" style="fill: none; stroke: #000; stroke-opacity: 0.15; opacity: 1;"></line><line transform="translate(0,143.5)" x2="200" y2="0" style="fill: none; stroke: #000; stroke-opacity: 0.15; opacity: 1;"></line><line transform="translate(0,129.5)" x2="200" y2="0" style="fill: none; stroke: #000; stroke-opacity: 0.15; opacity: 1;"></line><line transform="translate(0,114.5)" x2="200" y2="0" style="fill: none; stroke: #000; stroke-opacity: 0.15; opacity: 1;"></line><line transform="translate(0,100.5)" x2="200" y2="0" style="fill: none; stroke: #000; stroke-opacity: 0.15; opacity: 1;"></line><line transform="translate(0,86.5)" x2="200" y2="0" style="fill: none; stroke: #000; stroke-opacity: 0.15; opacity: 1;"></line><line transform="translate(0,71.5)" x2="200" y2="0" style="fill: none; stroke: #000; stroke-opacity: 0.15; opacity: 1;"></line><line transform="translate(0,57.5)" x2="200" y2="0" style="fill: none; stroke: #000; stroke-opacity: 0.15; opacity: 1;"></line><line transform="translate(0,43.5)" x2="200" y2="0" style="fill: none; stroke: #000; stroke-opacity: 0.15; opacity: 1;"></line><line transform="translate(0,29.5)" x2="200" y2="0" style="fill: none; stroke: #000; stroke-opacity: 0.15; opacity: 1;"></line><line transform="translate(0,14.5)" x2="200" y2="0" style="fill: none; stroke: #000; stroke-opacity: 0.15; opacity: 1;"></line><line transform="translate(0,0.5)" x2="200" y2="0" style="fill: none; stroke: #000; stroke-opacity: 0.15; opacity: 1;"></line></g><g class="mark-rule" style="pointer-events: none;"><line transform="translate(-6,200.5)" x2="6" y2="0" style="fill: none; stroke: #000; stroke-width: 1; opacity: 1;"></line><line transform="translate(-6,186.5)" x2="6" y2="0" style="fill: none; stroke: #000; stroke-width: 1; opacity: 1;"></line><line transform="translate(-6,171.5)" x2="6" y2="0" style="fill: none; stroke: #000; stroke-width: 1; opacity: 1;"></line><line transform="translate(-6,157.5)" x2="6" y2="0" style="fill: none; stroke: #000; stroke-width: 1; opacity: 1;"></line><line transform="translate(-6,143.5)" x2="6" y2="0" style="fill: none; stroke: #000; stroke-width: 1; opacity: 1;"></line><line transform="translate(-6,129.5)" x2="6" y2="0" style="fill: none; stroke: #000; stroke-width: 1; opacity: 1;"></line><line transform="translate(-6,114.5)" x2="6" y2="0" style="fill: none; stroke: #000; stroke-width: 1; opacity: 1;"></line><line transform="translate(-6,100.5)" x2="6" y2="0" style="fill: none; stroke: #000; stroke-width: 1; opacity: 1;"></line><line transform="translate(-6,86.5)" x2="6" y2="0" style="fill: none; stroke: #000; stroke-width: 1; opacity: 1;"></line><line transform="translate(-6,71.5)" x2="6" y2="0" style="fill: none; stroke: #000; stroke-width: 1; opacity: 1;"></line><line transform="translate(-6,57.5)" x2="6" y2="0" style="fill: none; stroke: #000; stroke-width: 1; opacity: 1;"></line><line transform="translate(-6,43.5)" x2="6" y2="0" style="fill: none; stroke: #000; stroke-width: 1; opacity: 1;"></line><line transform="translate(-6,29.5)" x2="6" y2="0" style="fill: none; stroke: #000; stroke-width: 1; opacity: 1;"></line><line transform="translate(-6,14.5)" x2="6" y2="0" style="fill: none; stroke: #000; stroke-width: 1; opacity: 1;"></line><line transform="translate(-6,0.5)" x2="6" y2="0" style="fill: none; stroke: #000; stroke-width: 1; opacity: 1;"></line></g><g class="mark-rule" style="pointer-events: none;"></g><g class="mark-text"><text text-anchor="end" transform="translate(-9,203.5)" style="font: 11px sans-serif; fill: #000; opacity: 1;">0.0</text><text text-anchor="end" transform="translate(-9,189.5)" style="font: 11px sans-serif; fill: #000; opacity: 1;">2.0</text><text text-anchor="end" transform="translate(-9,174.5)" style="font: 11px sans-serif; fill: #000; opacity: 1;">4.0</text><text text-anchor="end" transform="translate(-9,160.5)" style="font: 11px sans-serif; fill: #000; opacity: 1;">6.0</text><text text-anchor="end" transform="translate(-9,146.5)" style="font: 11px sans-serif; fill: #000; opacity: 1;">8.0</text><text text-anchor="end" transform="translate(-9,132.5)" style="font: 11px sans-serif; fill: #000; opacity: 1;">10</text><text text-anchor="end" transform="translate(-9,117.5)" style="font: 11px sans-serif; fill: #000; opacity: 1;">12</text><text text-anchor="end" transform="translate(-9,103.5)" style="font: 11px sans-serif; fill: #000; opacity: 1;">14</text><text text-anchor="end" transform="translate(-9,89.5)" style="font: 11px sans-serif; fill: #000; opacity: 1;">16</text><text text-anchor="end" transform="translate(-9,74.5)" style="font: 11px sans-serif; fill: #000; opacity: 1;">18</text><text text-anchor="end" transform="translate(-9,60.5)" style="font: 11px sans-serif; fill: #000; opacity: 1;">20</text><text text-anchor="end" transform="translate(-9,46.5)" style="font: 11px sans-serif; fill: #000; opacity: 1;">22</text><text text-anchor="end" transform="translate(-9,32.5)" style="font: 11px sans-serif; fill: #000; opacity: 1;">24</text><text text-anchor="end" transform="translate(-9,17.5)" style="font: 11px sans-serif; fill: #000; opacity: 1;">26</text><text text-anchor="end" transform="translate(-9,3.5)" style="font: 11px sans-serif; fill: #000; opacity: 1;">28</text></g><g class="mark-path" style="pointer-events: none;"><path transform="translate(0.5,0.5)" d="M-6,0H0V200H-6" style="fill: none; stroke: #000; stroke-width: 1;"></path></g><g class="mark-text"><text text-anchor="middle" transform="translate(-36,100) rotate(-90) translate(0,3)" style="font: bold 11px sans-serif; fill: #000;">y</text></g></g></g><g class="mark-symbol marks"><path transform="translate(4,70)" d="M0,3.0901936161855166A3.0901936161855166,3.0901936161855166 0 1,1 0,-3.0901936161855166A3.0901936161855166,3.0901936161855166 0 1,1 0,3.0901936161855166Z" style="fill: transparent; stroke: #4682b4; stroke-width: 2; opacity: 0.7;"></path><path transform="translate(8,70)" d="M0,3.0901936161855166A3.0901936161855166,3.0901936161855166 0 1,1 0,-3.0901936161855166A3.0901936161855166,3.0901936161855166 0 1,1 0,3.0901936161855166Z" style="fill: transparent; stroke: #4682b4; stroke-width: 2; opacity: 0.7;"></path><path transform="translate(12,65)" d="M0,3.0901936161855166A3.0901936161855166,3.0901936161855166 0 1,1 0,-3.0901936161855166A3.0901936161855166,3.0901936161855166 0 1,1 0,3.0901936161855166Z" style="fill: transparent; stroke: #4682b4; stroke-width: 2; opacity: 0.7;"></path><path transform="translate(16,63)" d="M0,3.0901936161855166A3.0901936161855166,3.0901936161855166 0 1,1 0,-3.0901936161855166A3.0901936161855166,3.0901936161855166 0 1,1 0,3.0901936161855166Z" style="fill: transparent; stroke: #4682b4; stroke-width: 2; opacity: 0.7;"></path><path transform="translate(20,65)" d="M0,3.0901936161855166A3.0901936161855166,3.0901936161855166 0 1,1 0,-3.0901936161855166A3.0901936161855166,3.0901936161855166 0 1,1 0,3.0901936161855166Z" style="fill: transparent; stroke: #4682b4; stroke-width: 2; opacity: 0.7;"></path><path transform="translate(26,60)" d="M0,3.0901936161855166A3.0901936161855166,3.0901936161855166 0 1,1 0,-3.0901936161855166A3.0901936161855166,3.0901936161855166 0 1,1 0,3.0901936161855166Z" style="fill: transparent; stroke: #4682b4; stroke-width: 2; opacity: 0.7;"></path><path transform="translate(32,60)" d="M0,3.0901936161855166A3.0901936161855166,3.0901936161855166 0 1,1 0,-3.0901936161855166A3.0901936161855166,3.0901936161855166 0 1,1 0,3.0901936161855166Z" style="fill: transparent; stroke: #4682b4; stroke-width: 2; opacity: 0.7;"></path><path transform="translate(40,58)" d="M0,3.0901936161855166A3.0901936161855166,3.0901936161855166 0 1,1 0,-3.0901936161855166A3.0901936161855166,3.0901936161855166 0 1,1 0,3.0901936161855166Z" style="fill: transparent; stroke: #4682b4; stroke-width: 2; opacity: 0.7;"></path><path transform="translate(46,55)" d="M0,3.0901936161855166A3.0901936161855166,3.0901936161855166 0 1,1 0,-3.0901936161855166A3.0901936161855166,3.0901936161855166 0 1,1 0,3.0901936161855166Z" style="fill: transparent; stroke: #4682b4; stroke-width: 2; opacity: 0.7;"></path><path transform="translate(52,52)" d="M0,3.0901936161855166A3.0901936161855166,3.0901936161855166 0 1,1 0,-3.0901936161855166A3.0901936161855166,3.0901936161855166 0 1,1 0,3.0901936161855166Z" style="fill: transparent; stroke: #4682b4; stroke-width: 2; opacity: 0.7;"></path><path transform="translate(60,48)" d="M0,3.0901936161855166A3.0901936161855166,3.0901936161855166 0 1,1 0,-3.0901936161855166A3.0901936161855166,3.0901936161855166 0 1,1 0,3.0901936161855166Z" style="fill: transparent; stroke: #4682b4; stroke-width: 2; opacity: 0.7;"></path><path transform="translate(70,45)" d="M0,3.0901936161855166A3.0901936161855166,3.0901936161855166 0 1,1 0,-3.0901936161855166A3.0901936161855166,3.0901936161855166 0 1,1 0,3.0901936161855166Z" style="fill: transparent; stroke: #4682b4; stroke-width: 2; opacity: 0.7;"></path><path transform="translate(80,42)" d="M0,3.0901936161855166A3.0901936161855166,3.0901936161855166 0 1,1 0,-3.0901936161855166A3.0901936161855166,3.0901936161855166 0 1,1 0,3.0901936161855166Z" style="fill: transparent; stroke: #4682b4; stroke-width: 2; opacity: 0.7;"></path><path transform="translate(90,38)" d="M0,3.0901936161855166A3.0901936161855166,3.0901936161855166 0 1,1 0,-3.0901936161855166A3.0901936161855166,3.0901936161855166 0 1,1 0,3.0901936161855166Z" style="fill: transparent; stroke: #4682b4; stroke-width: 2; opacity: 0.7;"></path><path transform="translate(100,35)" d="M0,3.0901936161855166A3.0901936161855166,3.0901936161855166 0 1,1 0,-3.0901936161855166A3.0901936161855166,3.0901936161855166 0 1,1 0,3.0901936161855166Z" style="fill: transparent; stroke: #4682b4; stroke-width: 2; opacity: 0.7;"></path><path transform="translate(120,28)" d="M0,3.0901936161855166A3.0901936161855166,3.0901936161855166 0 1,1 0,-3.0901936161855166A3.0901936161855166,3.0901936161855166 0 1,1 0,3.0901936161855166Z" style="fill: transparent; stroke: #4682b4; stroke-width: 2; opacity: 0.7;"></path><path transform="translate(140,21)" d="M0,3.0901936161855166A3.0901936161855166,3.0901936161855166 0 1,1 0,-3.0901936161855166A3.0901936161855166,3.0901936161855166 0 1,1 0,3.0901936161855166Z" style="fill: transparent; stroke: #4682b4; stroke-width: 2; opacity: 0.7;"></path><path transform="translate(160,15)" d="M0,3.0901936161855166A3.0901936161855166,3.0901936161855166 0 1,1 0,-3.0901936161855166A3.0901936161855166,3.0901936161855166 0 1,1 0,3.0901936161855166Z" style="fill: transparent; stroke: #4682b4; stroke-width: 2; opacity: 0.7;"></path><path transform="translate(180,9)" d="M0,3.0901936161855166A3.0901936161855166,3.0901936161855166 0 1,1 0,-3.0901936161855166A3.0901936161855166,3.0901936161855166 0 1,1 0,3.0901936161855166Z" style="fill: transparent; stroke: #4682b4; stroke-width: 2; opacity: 0.7;"></path><path transform="translate(200,1)" d="M0,3.0901936161855166A3.0901936161855166,3.0901936161855166 0 1,1 0,-3.0901936161855166A3.0901936161855166,3.0901936161855166 0 1,1 0,3.0901936161855166Z" style="fill: transparent; stroke: #4682b4; stroke-width: 2; opacity: 0.7;"></path></g></g></g></g></g></g></svg>