<svg class="marks" width="267" height="255" version="1.1" xmlns="http://www.w3.org/2000/svg" xmlns:xlink="http://www.w3.org/1999/xlink"><g transform="translate(60,12)"><g class="mark-group"><g transform="translate(0,0)"><rect class="background" width="1" height="1" style="fill: none;"></rect><g class="mark-group root"><g transform="translate(0,0)"><rect class="background" width="200" height="200" style="fill: none;"></rect><g class="mark-group"><g transform="translate(0,200)"><rect class="background" width="0" height="0" style="pointer-events: none; fill: none;"></rect><g class="mark-rule" style="pointer-events: none;"><line transform="translate(0.5,-200)" x2="0" y2="200" style="fill: none; stroke: #000; stroke-opacity: 0.15; opacity: 1;"></line><line transform="translate(63.5,-200)" x2="0" y2="200" style="fill: none; stroke: #000; stroke-opacity: 0.15; opacity: 1;"></line><line transform="translate(125.5,-200)" x2="0" y2="200" style="fill: none; stroke: #000; stroke-opacity: 0.15; opacity: 1;"></line><line transform="translate(188.5,-200)" x2="0" y2="200" style="fill: none; stroke: #000; stroke-opacity: 0.15; opacity: 1;"></line></g><g class="mark-rule" style="pointer-events: none;"><line transform="translate(0.5,0)" x2="0" y2="6" style="fill: none; stroke: #000; stroke-width: 1; opacity: 1;"></line><line transform="translate(63.5,0)" x2="0" y2="6" style="fill: none; stroke: #000; stroke-width: 1; opacity: 1;"></line><line transform="translate(125.5,0)" x2="0" y2="6" style="fill: none; stroke: #000; stroke-width: 1; opacity: 1;"></line><line transform="translate(188.5,0)" x2="0" y2="6" style="fill: none; stroke: #000; stroke-width: 1; opacity: 1;"></line></g><g class="mark-rule" style="pointer-events: none;"></g><g class="mark-text"><text text-anchor="middle" transform="translate(0.5,19)" style="font: 11px sans-serif; fill: #000; opacity: 1;">0.0</text><text text-anchor="middle" transform="translate(63.5,19)" style="font: 11px sans-serif; fill: #000; opacity: 1;">5.0</text><text text-anchor="middle" transform="translate(125.5,19)" style="font: 11px sans-serif; fill: #000; opacity: 1;">10</text><text text-anchor="middle" transform="translate(188.5,19)" style="font: 11px sans-serif; fill: #000; opacity: 1;">15</text></g><g class="mark-path" style="pointer-events: none;"><path transform="translate(0.5,0.5)" d="M0,6V0H200V6" style="fill: none; stroke: #000; stroke-width: 1;"></path></g><g class="mark-text"><text text-anchor="middle" transform="translate(100,35)" style="font: bold 11px sans-serif; fill: #000;">x</text></g></g></g><g class="mark-group"><g transform="translate(0,0)"><rect class="background" width="0" height="0" style="pointer-events: none; fill: none;"></rect><g class="mark-rule" style="pointer-events: none;"><line transform="translate(0,200.5)" x2="200" y2="0" style="fill: none; stroke: #000; stroke-opacity: 0.15; opacity: 1;"></line><line transform="translate(0,180.5)" x2="200" y2="0" style="fill: none; stroke: #000; stroke-opacity: 0.15; opacity: 1;"></line><line transform="translate(0,160.5)" x2="200" y2="0" style="fill: none; stroke: #000; stroke-opacity: 0.15; opacity: 1;"></line><line transform="translate(0,140.5)" x2="200" y2="0" style="fill: none; stroke: #000; stroke-opacity: 0.15; opacity: 1;"></line><line transform="translate(0,120.5)" x2="200" y2="0" style="fill: none; stroke: #000; stroke-opacity: 0.15; opacity: 1;"></line><line transform="translate(0,100.5)" x2="200" y2="0" style="fill: none; stroke: #000; stroke-opacity: 0.15; opacity: 1;"></line><line transform="translate(0,80.5)" x2="200" y2="0" style="fill: none; stroke: #000; stroke-opacity: 0.15; opacity: 1;"></line><line transform="translate(0,60.5)" x2="200" y2="0" style="fill: none; stroke: #000; stroke-opacity: 0.15; opacity: 1;"></line><line transform="translate(0,40.5)" x2="200" y2="0" style="fill: none; stroke: #000; stroke-opacity: 0.15; opacity: 1;"></line><line transform="translate(0,20.5)" x2="200" y2="0" style="fill: none; stroke: #000; stroke-opacity: 0.15; opacity: 1;"></line><line transform="translate(0,0.5)" x2="200" y2="0" style="fill: none; stroke: #000; stroke-opacity: 0.15; opacity: 1;"></line></g><g class="mark-rule" style="pointer-events: none;"><line transform="translate(-6,200.5)" x2="6" y2="0" style="fill: none; stroke: #000; stroke-width: 1; opacity: 1;"></line><line transform="translate(-6,180.5)" x2="6" y2="0" style="fill: none; stroke: #000; stroke-width: 1; opacity: 1;"></line><line transform="translate(-6,160.5)" x2="6" y2="0" style="fill: none; stroke: #000; stroke-width: 1; opacity: 1;"></line><line transform="translate(-6,140.5)" x2="6" y2="0" style="fill: none; stroke: #000; stroke-width: 1; opacity: 1;"></line><line transform="translate(-6,120.5)" x2="6" y2="0" style="fill: none; stroke: #000; stroke-width: 1; opacity: 1;"></line><line transform="translate(-6,100.5)" x2="6" y2="0" style="fill: none; stroke: #000; stroke-width: 1; opacity: 1;"></line><line transform="translate(-6,80.5)" x2="6" y2="0" style="fill: none; stroke: #000; stroke-width: 1; opacity: 1;"></line><line transform="translate(-6,60.5)" x2="6" y2="0" style="fill: none; stroke: #000; stroke-width: 1; opacity: 1;"></line><line transform="translate(-6,40.5)" x2="6" y2="0" style="fill: none; stroke: #000; stroke-width: 1; opacity: 1;"></line><line transform="translate(-6,20.5)" x2="6" y2="0" style="fill: none; stroke: #000; stroke-width: 1; opacity: 1;"></line><line transform="translate(-6,0.5)" x2="6" y2="0" style="fill: none; stroke: #000; stroke-width: 1; opacity: 1;"></line></g><g class="mark-rule" style="pointer-events: none;"></g><g class="mark-text"><text text-anchor="end" transform="translate(-9,203.5)" style="font: 11px sans-serif; fill: #000; opacity: 1;">0.0</text><text text-anchor="end" transform="translate(-9,183.5)" style="font: 11px sans-serif; fill: #000; opacity: 1;">0.050</text><text text-anchor="end" transform="translate(-9,163.5)" style="font: 11px sans-serif; fill: #000; opacity: 1;">0.10</text><text text-anchor="end" transform="translate(-9,143.5)" style="font: 11px sans-serif; fill: #000; opacity: 1;">0.15</text><text text-anchor="end" transform="translate(-9,123.5)" style="font: 11px sans-serif; fill: #000; opacity: 1;">0.20</text><text text-anchor="end" transform="translate(-9,103.5)" style="font: 11px sans-serif; fill: #000; opacity: 1;">0.25</text><text text-anchor="end" transform="translate(-9,83.5)" style="font: 11px sans-serif; fill: #000; opacity: 1;">0.30</text><text text-anchor="end" transform="translate(-9,63.5)" style="font: 11px sans-serif; fill: #000; opacity: 1;">0.35</text><text text-anchor="end" transform="translate(-9,43.5)" style="font: 11px sans-serif; fill: #000; opacity: 1;">0.40</text><text text-anchor="end" transform="translate(-9,23.5)" style="font: 11px sans-serif; fill: #000; opacity: 1;">0.45</text><text text-anchor="end" transform="translate(-9,3.5)" style="font: 11px sans-serif; fill: #000; opacity: 1;">0.50</text></g><g class="mark-path" style="pointer-events: none;"><path transform="translate(0.5,0.5)" d="M-6,0H0V200H-6" style="fill: none; stroke: #000; stroke-width: 1;"></path></g><g class="mark-text"><text text-anchor="middle" transform="translate(-48,100) rotate(-90) translate(0,3)" style="font: bold 11px sans-serif; fill: #000;">y</text></g></g></g><g class="mark-symbol marks"><path transform="translate(13,20)" d="M0,3.0901936161855166A3.0901936161855166,3.0901936161855166 0 1,1 0,-3.0901936161855166A3.0901936161855166,3.0901936161855166 0 1,1 0,3.0901936161855166Z" style="fill: transparent; stroke: #4682b4; stroke-width: 2; opacity: 0.7;"></path><path transform="translate(25,33)" d="M0,3.0901936161855166A3.0901936161855166,3.0901936161855166 0 1,1 0,-3.0901936161855166A3.0901936161855166,3.0901936161855166 0 1,1 0,3.0901936161855166Z" style="fill: transparent; stroke: #4682b4; stroke-width: 2; opacity: 0.7;"></path><path transform="translate(38,50)" d="M0,3.0901936161855166A3.0901936161855166,3.0901936161855166 0 1,1 0,-3.0901936161855166A3.0901936161855166,3.0901936161855166 0 1,1 0,3.0901936161855166Z" style="fill: transparent; stroke: #4682b4; stroke-width: 2; opacity: 0.7;"></path><path transform="translate(50,61)" d="M0,3.0901936161855166A3.0901936161855166,3.0901936161855166 0 1,1 0,-3.0901936161855166A3.0901936161855166,3.0901936161855166 0 1,1 0,3.0901936161855166Z" style="fill: transparent; stroke: #4682b4; stroke-width: 2; opacity: 0.7;"></path><path transform="translate(63,65)" d="M0,3.0901936161855166A3.0901936161855166,3.0901936161855166 0 1,1 0,-3.0901936161855166A3.0901936161855166,3.0901936161855166 0 1,1 0,3.0901936161855166Z" style="fill: transparent; stroke: #4682b4; stroke-width: 2; opacity: 0.7;"></path><path transform="translate(75,69)" d="M0,3.0901936161855166A3.0901936161855166,3.0901936161855166 0 1,1 0,-3.0901936161855166A3.0901936161855166,3.0901936161855166 0 1,1 0,3.0901936161855166Z" style="fill: transparent; stroke: #4682b4; stroke-width: 2; opacity: 0.7;"></path><path transform="translate(88,78)" d="M0,3.0901936161855166A3.0901936161855166,3.0901936161855166 0 1,1 0,-3.0901936161855166A3.0901936161855166,3.0901936161855166 0 1,1 0,3.0901936161855166Z" style="fill: transparent; stroke: #4682b4; stroke-width: 2; opacity: 0.7;"></path><path transform="translate(100,81)" d="M0,3.0901936161855166A3.0901936161855166,3.0901936161855166 0 1,1 0,-3.0901936161855166A3.0901936161855166,3.0901936161855166 0 1,1 0,3.0901936161855166Z" style="fill: transparent; stroke: #4682b4; stroke-width: 2; opacity: 0.7;"></path><path transform="translate(113,76)" d="M0,3.0901936161855166A3.0901936161855166,3.0901936161855166 0 1,1 0,-3.0901936161855166A3.0901936161855166,3.0901936161855166 0 1,1 0,3.0901936161855166Z" style="fill: transparent; stroke: #4682b4; stroke-width: 2; opacity: 0.7;"></path><path transform="translate(125,76)" d="M0,3.0901936161855166A3.0901936161855166,3.0901936161855166 0 1,1 0,-3.0901936161855166A3.0901936161855166,3.0901936161855166 0 1,1 0,3.0901936161855166Z" style="fill: transparent; stroke: #4682b4; stroke-width: 2; opacity: 0.7;"></path><path transform="translate(138,83)" d="M0,3.0901936161855166A3.0901936161855166,3.0901936161855166 0 1,1 0,-3.0901936161855166A3.0901936161855166,3.0901936161855166 0 1,1 0,3.0901936161855166Z" style="fill: transparent; stroke: #4682b4; stroke-width: 2; opacity: 0.7;"></path><path transform="translate(150,82)" d="M0,3.0901936161855166A3.0901936161855166,3.0901936161855166 0 1,1 0,-3.0901936161855166A3.0901936161855166,3.0901936161855166 0 1,1 0,3.0901936161855166Z" style="fill: transparent; stroke: #4682b4; stroke-width: 2; opacity: 0.7;"></path><path transform="translate(163,85)" d="M0,3.0901936161855166A3.0901936161855166,3.0901936161855166 0 1,1 0,-3.0901936161855166A3.0901936161855166,3.0901936161855166 0 1,1 0,3.0901936161855166Z" style="fill: transparent; stroke: #4682b4; stroke-width: 2; opacity: 0.7;"></path><path transform="translate(175,82)" d="M0,3.0901936161855166A3.0901936161855166,3.0901936161855166 0 1,1 0,-3.0901936161855166A3.0901936161855166,3.0901936161855166 0 1,1 0,3.0901936161855166Z" style="fill: transparent; stroke: #4682b4; stroke-width: 2; opacity: 0.7;"></path><path transform="translate(188,88)" d="M0,3.0901936161855166A3.0901936161855166,3.0901936161855166 0 1,1 0,-3.0901936161855166A3.0901936161855166,3.0901936161855166 0 1,1 0,3.0901936161855166Z" style="fill: transparent; stroke: #4682b4; stroke-width: 2; opacity: 0.7;"></path></g></g></g></g></g></g></svg>